<?xml version="1.0" encoding="UTF-8"?>
<!DOCTYPE svg PUBLIC "-//W3C//DTD SVG 1.1//EN" "http://www.w3.org/Graphics/SVG/1.1/DTD/svg11.dtd">
<svg xmlns="http://www.w3.org/2000/svg" version="1.1" width="500px" height="500px" style="shape-rendering:geometricPrecision; text-rendering:geometricPrecision; image-rendering:optimizeQuality; fill-rule:evenodd; clip-rule:evenodd" xmlns:xlink="http://www.w3.org/1999/xlink">
<g><path style="opacity:0.981" fill="#000000" d="M 296.5,28.5 C 302.921,29.0868 306.587,32.5868 307.5,39C 291.748,73.0865 295.582,104.92 319,134.5C 346.843,162.225 379.676,170.725 417.5,160C 426.732,155.435 434.065,148.769 439.5,140C 448.153,135.932 453.819,138.599 456.5,148C 436.846,192.935 402.513,212.602 353.5,207C 307.217,197.939 276.384,171.106 261,126.5C 251.527,90.5467 260.027,59.7133 286.5,34C 289.489,31.3428 292.822,29.5095 296.5,28.5 Z"/></g>
<g><path style="opacity:0.984" fill="#000000" d="M 205.5,48.5 C 212.968,48.2226 217.301,51.7226 218.5,59C 210.555,73.734 204.388,89.234 200,105.5C 194.283,128.073 195.949,150.073 205,171.5C 228.405,221.571 266.905,253.404 320.5,267C 374.008,277.838 417.341,261.838 450.5,219C 456.774,216.033 461.608,217.533 465,223.5C 465.767,227.594 465.434,231.594 464,235.5C 434.466,299.213 384.299,329.713 313.5,327C 279.05,325.518 248.05,314.518 220.5,294C 169.896,256.285 146.062,205.785 149,142.5C 154.315,102.843 173.148,71.5099 205.5,48.5 Z"/></g>
<g><path style="opacity:0.986" fill="#000000" d="M 95.5,78.5 C 105.536,78.0321 109.702,82.6987 108,92.5C 96.7456,110.835 90.7456,130.835 90,152.5C 87.3868,198.767 96.0535,242.767 116,284.5C 161.496,356.02 226.996,393.02 312.5,395.5C 349.422,395.692 383.089,385.525 413.5,365C 423.167,356.667 432.167,347.667 440.5,338C 449.251,334.812 454.584,337.812 456.5,347C 426.772,411.567 376.772,450.234 306.5,463C 256.54,471.131 208.873,464.131 163.5,442C 61.7041,385.244 18.2041,298.744 33,182.5C 42.3783,140.709 63.2117,106.043 95.5,78.5 Z"/></g>
</svg>
