<svg viewBox="0 0 24 24" xmlns="http://www.w3.org/2000/svg"><path d="m21.0157 18.1202-8.6647 4.8798v-3.8007l5.3986-2.9567 3.266 1.8776zm.5927-.5344v-10.2053l-3.1708 1.822v6.5593zm-18.6827.5344 8.6647 4.8798v-3.8007l-5.3986-2.9567-3.266 1.8776zm-.5927-.5344v-10.2053l3.1707 1.822v6.5593zm.371-10.8656 8.8864-5.0056v3.6748l-5.693 3.1176-.0434.0248zm18.5335 0-8.8865-5.0056v3.6748l5.693 3.1177.0434.0248 3.15-1.8116zm-9.647 11.6146-5.3262-2.9155v-5.7773l5.326 3.062v5.6308zm.7605 0 5.326-2.9155v-5.7773l-5.326 3.062zm-5.726-9.3614 5.3467-2.928 5.3468 2.928-5.3468 3.0744z"/></svg>